<svg xmlns="http://www.w3.org/2000/svg" width="308" height="308" viewBox="0 0 308 308"><g id="others"><path id="67" d="M 247,231.681 C 247,229.721 246.550,227.840 246,227.500 C 244.471,226.555 244.811,224 246.465,224 C 249.700,224 251.267,231.703 248.500,234 C 247.214,235.067 247,234.735 247,231.681" stroke="#7D7169" fill="#7D7169" stroke-width="1" />
  <path id="66" d="M 157.728,253.395 C 156.639,252.306 157.955,251 160.142,251 C 161.317,251 161.992,251.525 161.750,252.250 C 161.275,253.678 158.734,254.401 157.728,253.395" stroke="#8E8176" fill="#8E8176" stroke-width="1" />
  </g><g id="cat"><path id="27" d="M 189.716,219.511 C 186.564,215.561 178.850,197.210 180.033,196.479 C 181.779,195.400 194,216.507 194,220.602 C 194,223.875 192.993,223.618 189.716,219.511" stroke="#32302F" fill="#32302F" stroke-width="1" />
  <path id="14" d="M 87.576,150.500 C 87.993,149.400 88.270,147.182 88.193,145.571 C 88.116,143.960 88.546,142.047 89.149,141.321 C 90.630,139.536 95.462,139.647 97,141.500 C 99.261,145.365 93.537,140.429 92.434,143.868 C 92.715,144.797 91.613,147.007 89.873,149 C 88.036,151.105 87.120,151.703 87.576,150.500" stroke="#A1958A" fill="#A1958A" stroke-width="1" />
  <path id="67" d="M 248,191.500 C 247.291,188.969 246.140,187 245.370,187 C 242.348,185.809 243.968,179.018 245,184.059 C 245,189.378 254.647,182.909 259.547,174.304 C 260.548,172.546 261.733,171.335 262.180,171.611 C 263.677,172.536 260.060,177.837 254.964,182.190 C 249.933,186.487 249.920,186.514 250.553,191.250 C 251.367,197.338 249.681,197.503 248,191.500" stroke="#7D7169" fill="#7D7169" stroke-width="1" />
  <path id="14" d="M 119,137.723 C 119,137.021 117.650,134.968 116,133.161 C 112.569,129.405 112.425,129 114.516,129 C 117.512,129 124,126.489 124,125.329 C 124,123.785 119.169,120 117.198,120 C 116.356,120 115.951,119.716 116.298,119.369 C 117.382,118.285 114.994,114.948 112.439,113.977 C 109.117,112.714 109.371,111.552 113.531,108.981 C 116.629,107.066 117.027,106.364 116.781,103.255 C 116.522,99.985 116.840,99.530 120.913,97.353 C 123.340,96.055 125.387,95.108 125.461,95.247 C 125.535,95.386 126.126,96.738 126.776,98.250 C 127.508,99.954 128.727,101 129.979,101 C 132.573,101 132.585,98.846 130,97.232 C 127.534,95.692 127.381,92.308 129.750,91.689 C 129.993,90.024 129.993,84.879 128.046,82 C 126.619,82 128.862,77.070 130.333,70.836 C 129.817,72.807 128.288,73.419 124.250,73.269 C 123.566,75.464 120.431,79.163 119.008,78.328 C 115.582,81.576 121.524,72.827 125.689,68.491 C 128.335,65.736 132.485,60.876 134.911,57.690 C 137.337,54.504 140.262,51.405 141.411,50.803 C 142.560,50.201 145.525,48.035 148,45.992 C 150.475,43.949 153.939,41.540 155.698,40.639 C 157.457,39.738 160.899,37.650 163.347,35.998 C 167.636,33.103 168.191,32.997 178.649,33.063 C 190.204,33.135 198.336,34.830 202.214,37.974 C 205.321,40.493 203.916,41.506 199.831,39.691 C 192.958,36.638 185.925,35 179.685,35 C 172.179,35 170.919,35.984 171.261,41.583 C 171.479,45.141 171.189,45.645 168,47.246 C 165.559,48.472 164.500,49.682 164.500,51.251 C 164.500,52.955 163.841,53.576 161.776,53.814 C 160.278,53.987 156.912,56.066 154.296,58.434 C 150.135,62.201 149.709,62.944 150.892,64.370 C 152.738,66.594 153.947,66.425 156.981,63.518 C 158.406,62.153 160.964,60.757 162.664,60.417 C 162.664,60.417 165.756,59.799 165.756,59.799 C 165.756,59.799 165.452,65.887 165.452,65.887 C 165.285,69.235 165.573,72.236 166.091,72.556 C 166.609,72.876 166.766,73.569 166.440,74.096 C 166.114,74.623 166.811,77.043 167.988,79.474 C 169.750,83.113 169.919,84.282 168.949,86.094 C 168.053,87.768 168.048,89.216 168.926,92.147 C 168.926,92.147 170.080,96 170.080,96 C 170.080,96 176.106,96 176.106,96 C 182.102,96 186,97.196 186,99.035 C 186,99.566 184.301,100 182.223,100 C 176.678,100 174,102.269 174,106.968 C 174,110.044 174.621,111.345 177.077,113.411 C 178.769,114.835 180.682,116.045 181.327,116.100 C 181.972,116.155 181.375,116.516 180,116.902 C 178.532,117.314 176.468,117.069 175,116.308 C 171.676,114.584 169.068,114.660 162.776,116.750 C 163.378,120.074 166.216,123 168.836,123 C 170.956,123 173.362,125.305 172.325,126.342 C 171.963,126.704 170.163,127 168.324,127 C 166.166,127 164.363,127.735 163.240,129.075 C 159.762,133.222 157.661,133.304 160.989,129.163 C 160.989,129.163 164.243,125.114 164.243,125.114 C 164.243,125.114 161.372,122.588 161.372,122.588 C 158.161,119.765 154,119.151 154,121.500 C 154,125.329 143.378,122.619 142.801,118.643 C 142.475,116.394 136.313,111.688 134.866,112.583 C 133.517,113.417 128,107.433 128,105.136 C 128,104.026 127.522,102.822 126.937,102.461 C 125.502,101.574 122,104.869 122,107.105 C 122,108.092 121.333,109.273 120.519,109.729 C 119.705,110.185 118.762,111.941 118.424,113.631 C 117.914,116.181 118.274,117.070 120.539,118.852 C 122.041,120.033 124.109,121 125.135,121 C 127.301,121 127.392,121.578 125.902,125.851 C 125.096,128.163 124.188,129 122.484,129 C 116.818,129 115.679,131.051 119,135.273 C 121.235,138.114 121.473,139 120,139 C 119.450,139 119,138.425 119,137.723M 164.500,100.393 C 167.185,98.051 167.264,97.831 163.962,93.399 C 163.433,92.008 163,89.581 163,88.007 C 163,85.003 159.120,81 156.209,81 C 155.372,81 152.567,78.693 149.975,75.873 C 149.975,75.873 145.262,70.747 145.262,70.747 C 145.262,70.747 142.381,72.663 142.381,72.663 C 140.797,73.717 138.600,75.061 141.614,79.829 C 143.327,80.092 148.128,85.219 153.624,88.291 C 155.107,89.774 152.434,90.755 145.472,91.281 C 137.598,91.877 135,93.036 135,95.956 C 135,97.295 135.923,97.676 139.250,97.711 C 144.702,97.768 154.585,101.133 158.831,105.590 C 160.299,104.170 162.850,101.832 164.500,100.393M 158.750,73.251 C 159.264,71.708 156.568,70.568 154.387,71.405 C 153.060,71.914 152.999,72.295 154.045,73.555 C 155.487,75.293 158.127,75.122 158.750,73.251M 158.975,45.750 C 163.467,43.452 165.991,40.657 164.721,39.387 C 163.828,38.494 158.563,41.310 154.038,45.100 C 151.157,47.513 150.912,48 152.576,48 C 153.676,48 156.556,46.987 158.975,45.750" stroke="#A1958A" fill="#A1958A" stroke-width="1" />
  <path id="66" d="M 155.456,142.929 C 155.081,142.322 155.275,141.325 155.887,140.713 C 156.499,140.101 157,138.115 157,136.300 C 157,134.485 157.454,133 158.009,133 C 158.564,133 160.430,131.650 162.157,130 C 164.205,128.043 166.331,127 168.271,127 C 170.711,127 171.035,127.252 170.079,128.404 C 168.416,130.408 169.795,134.820 172.674,136.706 C 175.542,138.585 174.761,139.753 169.402,141.595 C 166.610,142.555 165.300,142.579 163.890,141.699 C 162.426,140.785 161.426,140.908 159.089,142.288 C 157.046,143.495 155.928,143.693 155.456,142.929" stroke="#8E8176" fill="#8E8176" stroke-width="1" />
  <path id="67" d="M 51,191.627 C 51,188.241 54.787,180.068 58.141,176.215 C 59.714,174.408 61,172.040 61,170.952 C 61,169.206 61.485,167.941 63.905,163.379 C 64.232,162.763 66.412,159.745 68.750,156.672 C 71.088,153.599 73,150.812 73,150.478 C 73,150.144 74.886,147.682 77.190,145.007 C 79.494,142.332 81.545,138.905 81.748,137.392 C 81.951,135.879 83.376,133.034 84.914,131.070 C 86.452,129.106 88.239,126.492 92.234,122.202 C 91.859,120.370 100.028,106.899 101.109,107.567 C 102.563,108.465 102.145,110.622 99.583,115.440 C 98.254,117.940 97.522,120.205 97.957,120.474 C 99.277,121.290 104.003,116.239 105.650,112.251 C 106.502,110.188 107.819,107.802 108.576,106.948 C 109.333,106.094 110.102,104.415 110.285,103.216 C 110.468,102.017 111.577,100.016 112.749,98.768 C 113.921,97.520 115.285,95.402 115.781,94.062 C 116.442,92.276 117.859,91.342 121.091,90.563 C 124.604,89.716 125.568,89.013 125.838,87.106 C 126.158,84.844 125.951,84.743 122.084,85.262 C 119.833,85.564 117.097,85.577 116.003,85.291 C 114.129,84.801 114.189,84.548 117.052,80.934 C 118.940,78.550 120.641,77.309 124.250,73.269 C 128.288,73.419 129.817,72.807 131.728,73.905 C 128.862,77.070 126.619,82 128.046,82 C 138.647,87.573 127.856,89.163 129.750,91.884 C 127.340,92.044 127.509,95.677 130,97.232 C 132.585,98.846 132.573,101 129.979,101 C 128.727,101 127.508,99.954 126.776,98.250 C 126.126,96.738 125.535,95.386 125.461,95.247 C 125.387,95.108 123.340,96.055 120.913,97.353 C 116.840,99.530 116.522,99.985 116.781,103.255 C 117.027,106.364 116.629,107.066 113.531,108.981 C 109.371,111.552 109.117,112.714 112.439,113.977 C 114.994,114.948 117.382,118.285 116.298,119.369 C 115.951,119.716 116.356,120 117.198,120 C 119.169,120 124,123.785 124,125.329 C 124,126.489 117.512,129 114.516,129 C 112.425,129 112.569,129.405 116,133.161 C 119.242,136.711 119.854,139 117.559,139 C 114.348,139 115.209,141.038 119.476,143.539 C 121.964,144.997 124,146.603 124,147.109 C 124,147.615 122.114,146.784 119.808,145.264 C 115.936,142.711 114.952,142.518 106.928,142.747 C 100.207,142.938 97.959,142.655 96.998,141.497 C 95.396,139.567 90.605,139.566 89.004,141.495 C 88.322,142.317 88.008,143.920 88.305,145.057 C 88.800,146.950 88.300,148.604 84.542,157.500 C 83.845,159.150 82.700,162.945 81.998,165.934 C 79.428,176.870 68.142,196.418 66.647,192.523 C 66.350,191.749 66.365,189.522 66.681,187.575 C 67.129,184.812 66.881,183.892 65.547,183.380 C 64.324,182.911 62.218,184.326 58.140,188.362 C 55.006,191.463 52.118,194 51.721,194 C 51.324,194 51,192.932 51,191.627" stroke="#7D7169" fill="#7D7169" stroke-width="1" />
  <path id="66" d="M 93.537,255.060 C 93.135,254.409 94.216,253.390 96.178,252.570 C 98.005,251.806 100.762,250.190 102.303,248.977 C 105.316,246.607 107.089,247.050 105.387,249.748 C 102.876,253.729 94.919,257.296 93.537,255.060" stroke="#8E8176" fill="#8E8176" stroke-width="1" />
  <path id="67" d="M 225.607,122.418 C 224.663,119.959 224.892,117 226.025,117 C 227.296,117 229.221,121.834 228.448,123.084 C 227.583,124.483 226.282,124.178 225.607,122.418" stroke="#7D7169" fill="#7D7169" stroke-width="1" />
  <path id="66" d="M 47.406,195.617 C 47.077,194.760 47.751,192.860 48.904,191.395 C 52.747,183.435 50.301,195.328 51.721,194 C 52.118,194 55.006,191.463 58.140,188.362 C 61.958,184.584 64.359,182.923 65.419,183.330 C 67.332,184.064 67.559,189 65.680,189 C 64.954,189 62.587,190.517 60.421,192.371 C 55.775,196.348 48.393,198.189 47.406,195.617" stroke="#8E8176" fill="#8E8176" stroke-width="1" />
  <path id="67" d="M 153.953,153.444 C 153.243,152.588 153.075,151.966 153.581,152.062 C 155.618,152.449 155.906,151.882 154.950,149.368 C 153.991,146.846 154.592,142.258 155.732,143.398 C 156.034,143.700 157.577,143.182 159.161,142.246 C 161.436,140.902 162.430,140.787 163.890,141.699 C 165.300,142.579 166.610,142.555 169.402,141.595 C 174.761,139.753 175.542,138.585 172.674,136.706 C 169.166,134.407 168.384,130.284 170.941,127.563 C 173.210,125.148 172.182,123 168.758,123 C 166.207,123 163.371,120.037 168.362,116.500 C 169.068,114.660 171.676,114.584 175,116.308 C 176.468,117.069 178.532,117.314 180,116.902 C 181.375,116.516 181.972,116.155 181.327,116.100 C 180.682,116.045 178.769,114.835 177.077,113.411 C 173.134,110.093 172.697,104.027 178.223,101.557 C 174.215,104.364 176.624,113 181.415,113 C 182.617,113 184.119,113.519 184.753,114.153 C 186.370,115.770 184.478,119 181.915,119 C 180.807,119 178.635,119.654 177.088,120.454 C 174.881,121.595 174.155,122.809 173.715,126.091 C 172.825,132.728 174.098,134.682 180.534,136.553 C 183.622,137.451 185.862,138.472 185.512,138.822 C 185.162,139.172 182.315,140.818 179.187,142.479 C 173.929,145.272 173.500,145.764 173.500,149 C 173.500,152.333 173.333,152.500 170,152.500 C 167.228,152.500 166.438,152.071 166.205,150.439 C 166.043,149.306 164.536,147.566 162.856,146.574 C 160.068,144.927 159.663,144.908 158.216,146.355 C 156.869,147.702 156.827,148.308 157.933,150.375 C 160.065,154.360 156.802,156.876 153.953,153.444" stroke="#7D7169" fill="#7D7169" stroke-width="1" />
  <path id="61" d="M 102,104.122 C 102,103.639 102.675,102.685 103.500,102 C 104.325,101.315 105.015,100.248 105.032,99.628 C 105.083,97.795 109.440,93.379 111.809,92.760 C 114.404,92.081 114.549,92.771 112.442,95.779 C 111.585,97.002 111.142,98.422 111.458,98.933 C 111.774,99.444 111.568,100.149 111,100.500 C 110.432,100.851 110.227,101.557 110.543,102.069 C 111.388,103.436 109.611,103.204 108.105,101.750 C 107.062,100.744 106.512,100.939 105.283,102.750 C 103.744,105.018 102,105.746 102,104.122" stroke="#5E5650" fill="#5E5650" stroke-width="1" />
  <path id="52" d="M 179.314,261.050 C 176.521,259.347 174,256.271 174,254.566 C 174,253.165 176.521,254.250 179.653,257 C 183.337,260.235 184.722,260.514 189.823,259.051 C 193.139,258.100 197.733,253.433 201.056,254 C 201.790,254 203.540,255.093 204.945,256.429 C 207.669,259.018 213.874,261.224 212.590,259.146 C 212.201,258.516 211.078,258 210.096,258 C 207.980,258 205,254.974 207.986,246.483 C 207.295,245.651 207.451,244.363 208.483,242.385 C 210.709,236.861 210.672,244.195 211.737,237.500 C 211.737,237.500 211.868,241.518 211.868,241.518 C 211.961,244.343 211.236,246.660 209.425,249.325 C 205.680,254.837 207.234,256.325 216.206,255.818 C 223.563,255.402 225.139,256.645 220.250,259.007 C 217.811,260.185 213.853,260.602 198.335,261.310 C 196.044,261.415 193.831,261.837 193.418,262.250 C 191.863,263.801 182.523,263.006 179.314,261.050" stroke="#5A4D43" fill="#5A4D43" stroke-width="1" />
  <path id="66" d="M 237.903,152.617 C 238.790,151.548 238.694,151.097 237.482,150.632 C 236.263,150.164 236.147,149.595 236.957,148.081 C 237.531,147.009 238,145.211 238,144.087 C 238,141.770 228.234,131.526 225.067,130.521 C 223.720,130.093 223,129.013 223,127.419 C 223,126.074 222.616,124.191 222.147,123.236 C 216.664,112.073 215.972,108.620 218.902,107.052 C 220.469,106.213 220.865,105.312 220.429,103.573 C 219.997,101.852 220.438,100.807 222.083,99.655 C 225.219,97.458 226,98.358 226,104.166 C 226,108.268 226.285,109.105 227.518,108.632 C 228.757,108.157 229.004,108.924 228.867,112.808 C 228.774,115.425 229.233,118.568 229.887,119.790 C 230.809,121.513 230.802,122.930 229.852,126.100 C 228.643,130.134 228.674,130.229 232.197,133.344 C 234.160,135.080 237.009,138.203 238.528,140.284 C 240.840,143.452 241.116,144.450 240.222,146.412 C 239.462,148.079 239.466,149.066 240.235,149.835 C 241.409,151.009 239.628,154 237.755,154 C 237.160,154 237.220,153.441 237.903,152.617M 228.448,123.084 C 229.221,121.834 227.296,117 226.025,117 C 224.892,117 224.663,119.959 225.607,122.418 C 226.282,124.178 227.583,124.483 228.448,123.084" stroke="#8E8176" fill="#8E8176" stroke-width="1" />
  <path id="61" d="M 217.250,228.359 C 213.215,225.926 211.952,223.766 213.871,222.580 C 214.350,222.284 215.769,222.932 217.024,224.021 C 220.016,226.616 221.573,226.517 224.545,223.545 C 226.692,221.398 227,220.198 227,213.962 C 227,208.700 227.327,206.944 228.250,207.256 C 229.127,207.553 229.500,210.388 229.500,216.762 C 229.500,224.999 229.275,226.084 227.076,228.422 C 224.077,231.611 222.628,231.602 217.250,228.359" stroke="#5E5650" fill="#5E5650" stroke-width="1" />
  <path id="27" d="M 209.168,239.766 C 208.435,237.250 208.017,234.136 208.239,232.846 C 208.630,230.575 208.682,230.594 209.870,233.442 C 210.545,235.060 210.962,238.174 210.798,240.362 C 210.798,240.362 210.500,244.341 210.500,244.341 C 210.500,244.341 209.168,239.766 209.168,239.766" stroke="#32302F" fill="#32302F" stroke-width="1" />
  <path id="61" d="M 210.622,219.197 C 209.817,217.894 223.760,194.057 225.793,193.260 C 228.579,192.168 227.924,194.190 222.321,203.983 C 215.507,215.893 211.667,220.887 210.622,219.197" stroke="#5E5650" fill="#5E5650" stroke-width="1" />
  <path id="27" d="M 201.250,254.183 C 200.012,254.006 199,253.431 199,252.906 C 199,252.381 197.898,251.532 196.552,251.020 C 193.181,249.739 191.031,246.087 193.484,242.025 C 192.279,243.975 197.944,246.280 202.431,245.665 C 205.533,245.240 207.142,245.466 207.953,246.443 C 208.802,247.465 208.805,248.002 207.967,248.520 C 207.346,248.904 206.087,250.408 205.169,251.862 C 204.014,253.691 202.807,254.406 201.250,254.183" stroke="#32302F" fill="#32302F" stroke-width="1" />
  <path id="66" d="M 229.523,100.882 C 229.735,99.780 229.428,96.486 228.841,93.562 C 227.987,89.311 227.432,88.336 226.067,88.693 C 224.230,89.173 221.267,86.400 226.592,82.848 C 225.736,77.490 224.819,76.492 222.094,77.950 C 219.125,79.539 217.013,78.088 213.910,72.332 C 212.013,68.813 210.483,67.283 208.211,66.631 C 206.112,66.029 204.580,64.635 203.487,62.331 C 201.352,57.831 201.837,55.999 205.772,53.701 C 208.803,51.931 209.212,51.909 211.483,53.397 C 214.814,55.580 215.996,55.411 217.899,52.913 C 219.928,55.552 224.200,66.058 225.948,72.708 C 226.556,75.022 227.511,77.197 228.068,77.542 C 228.625,77.887 228.795,79.068 228.446,80.169 C 228.039,81.450 228.511,82.949 229.758,84.335 C 231.320,86.073 231.712,88.016 231.745,94.184 C 231.774,99.669 231.406,102.013 230.461,102.376 C 229.570,102.718 229.263,102.230 229.523,100.882M 219,72.624 C 219,69.763 213.983,60 212.513,60 C 210.478,60 210.526,60.220 214.192,67.586 C 217.251,73.732 219,75.564 219,72.624" stroke="#8E8176" fill="#8E8176" stroke-width="1" />
  <path id="61" d="M 136.343,223.942 C 134.131,220.599 133.532,218.535 133.518,214.196 C 133.506,210.674 133.950,208.537 134.750,208.262 C 135.599,207.971 136,208.994 136,211.448 C 136,213.436 136.923,217.801 138.050,221.148 C 139.177,224.495 139.886,227.447 139.625,227.708 C 139.364,227.969 137.887,226.275 136.343,223.942" stroke="#5E5650" fill="#5E5650" stroke-width="1" />
  <path id="27" d="M 245,184.699 C 245,182.253 242.502,178.103 240.755,177.646 C 239.795,177.395 238.717,176.360 238.360,175.345 C 238.003,174.330 236.337,172.038 234.659,170.250 C 231.224,166.592 226.941,165.952 223.241,168.544 C 220.651,170.358 214.874,169.240 210.881,166.152 C 209.572,165.140 206.422,163.528 203.882,162.570 C 199.556,160.939 198.720,160.931 190.646,162.444 C 180.401,164.364 173.980,166.975 172.211,169.939 C 171.502,171.127 170.735,173.989 170.506,176.299 C 169.850,182.932 165.027,185.808 160.214,182.437 C 156.373,181.020 156.373,187.560 153.826,182.862 C 151.539,180.741 148,171.947 148,168.385 C 146.140,163.553 146.033,163.553 144.622,159.862 C 143.940,156.454 146.625,149.073 148.563,149.026 C 149.148,149.012 150.919,150.350 152.500,152 C 156.850,156.540 160.628,155.410 157.933,150.375 C 156.827,148.308 156.869,147.702 158.216,146.355 C 159.663,144.908 160.068,144.927 162.856,146.574 C 164.536,147.566 166.043,149.306 166.205,150.439 C 166.438,152.071 167.228,152.500 170,152.500 C 173.333,152.500 173.500,152.333 173.500,149 C 173.500,145.764 173.929,145.272 179.187,142.479 C 182.315,140.818 185.162,139.172 185.512,138.822 C 185.862,138.472 183.622,137.451 180.534,136.553 C 174.098,134.682 172.825,132.728 173.715,126.091 C 174.155,122.809 174.881,121.595 177.088,120.454 C 178.635,119.654 180.807,119 181.915,119 C 184.478,119 186.370,115.770 184.753,114.153 C 184.119,113.519 182.617,113 181.415,113 C 178.838,113 176,109.118 176,105.592 C 176,102.349 179.455,100 187.180,98 C 186.729,98 184.479,96.390 182.180,94.422 C 179.390,92.034 178,90.032 178,88.401 C 178,86.822 177.187,85.587 175.701,84.910 C 174.437,84.334 172.196,81.864 170.721,79.423 C 168.105,75.093 168.081,74.900 169.695,71.514 C 171.241,68.273 171.238,67.919 169.651,66.166 C 166.865,63.088 169.199,59.046 173.781,59.015 C 176.891,58.994 177.809,56.157 175.363,54.122 C 170.847,50.364 170.632,49.350 173.540,45.537 C 175.546,42.907 177.257,41.823 180.125,41.364 C 182.918,40.917 184,40.255 184,38.989 C 184,35.527 191.188,35.872 200.250,39.771 C 203.502,41.170 204,41.823 204,44.692 C 204,47.669 203.712,48 201.122,48 C 199.539,48 196.608,48.683 194.608,49.519 C 191.374,50.870 191.042,51.340 191.606,53.769 C 191.955,55.271 192.748,56.960 193.370,57.523 C 193.992,58.086 194.980,59.405 195.567,60.456 C 197.002,63.026 199.541,64.297 207.499,66.429 C 211.174,67.414 211.802,68.118 215.261,75.136 C 219.133,82.991 219.280,85.432 215.936,86.307 C 213.129,87.041 212.472,89.759 214.548,92.053 C 216.155,93.828 216.179,94.159 214.788,95.266 C 212.203,97.324 211.790,104.087 213.882,110.121 C 217.692,121.109 218.283,122.523 219.482,123.504 C 220.157,124.056 221.007,125.448 221.372,126.597 C 221.737,127.746 224.252,130.122 226.961,131.878 C 232.340,135.364 238,141.814 238,144.460 C 235.420,147.710 238.691,152.886 238.269,152.334 C 236.648,153.336 239.199,160 241.203,160 C 243.164,160 248,152.371 248,149.277 C 248,147.580 251.673,144 253.414,144 C 253.680,144 255.294,146.925 257,150.500 C 258.706,154.075 260.495,157 260.974,157 C 262.589,157 264.182,163.964 259.547,174.304 C 256.550,179.567 249.810,186 247.292,186 C 246.032,186 245,185.414 245,184.699" stroke="#32302F" fill="#32302F" stroke-width="1" />
  <path id="27" d="M 97.724,120.391 C 97.446,120.113 98.325,117.804 99.678,115.260 C 101.031,112.716 101.908,109.756 101.627,108.682 C 101.289,107.389 102.133,105.713 104.127,103.719 C 106.935,100.911 107.250,100.821 108.802,102.373 C 110.151,103.722 110.235,104.366 109.251,105.769 C 108.583,106.721 106.892,109.818 105.492,112.652 C 103.151,117.393 98.930,121.597 97.724,120.391" stroke="#32302F" fill="#32302F" stroke-width="1" />
  <path id="67" d="M 137.673,199.117 C 136.936,195.431 138.441,189.980 141.144,186.544 C 144.284,182.552 145.649,184.808 143.108,189.789 C 141.978,192.004 140.759,195.658 140.399,197.908 C 139.634,202.691 138.489,203.199 137.673,199.117" stroke="#7D7169" fill="#7D7169" stroke-width="1" />
  <path id="66" d="M 101.522,257.036 C 101.194,256.506 102.630,254.938 104.713,253.551 C 106.796,252.164 110.185,249.596 112.245,247.844 C 114.305,246.092 116.259,244.925 116.587,245.253 C 118.137,246.803 115.254,250.525 109.751,254.082 C 103.300,258.251 102.460,258.554 101.522,257.036" stroke="#8E8176" fill="#8E8176" stroke-width="1" />
  <path id="67" d="M 252.938,213.259 C 252.265,211.191 251.105,208.612 250.358,207.527 C 248.558,204.911 248.638,203 250.549,203 C 252.263,203 255.943,210.249 255.978,213.691 C 256.016,217.450 254.218,217.194 252.938,213.259" stroke="#7D7169" fill="#7D7169" stroke-width="1" />
  <path id="61" d="M 226.183,105.356 C 226.357,103.235 226.950,101.613 227.500,101.750 C 228.988,102.122 228.710,108.263 227.183,108.772 C 226.213,109.095 225.950,108.197 226.183,105.356" stroke="#5E5650" fill="#5E5650" stroke-width="1" />
  <path id="14" d="M 131.491,165.250 C 131.190,163.738 130.468,161.150 129.886,159.500 C 127.719,153.352 127.639,152.713 129.098,153.199 C 131.939,154.144 135.609,168 133.019,168 C 132.479,168 131.792,166.762 131.491,165.250" stroke="#A1958A" fill="#A1958A" stroke-width="1" />
  <path id="67" d="M 154.045,73.555 C 152.999,72.295 153.060,71.914 154.387,71.405 C 156.568,70.568 159.264,71.708 158.750,73.251 C 158.127,75.122 155.487,75.293 154.045,73.555" stroke="#7D7169" fill="#7D7169" stroke-width="1" />
  <path id="14" d="M 79.543,182.069 C 79.227,181.557 79.373,180.887 79.870,180.580 C 80.367,180.273 81.072,178.429 81.437,176.483 C 82.237,172.219 84,172.822 84,177.359 C 84,181.594 81.126,184.631 79.543,182.069" stroke="#A1958A" fill="#A1958A" stroke-width="1" />
  <path id="67" d="M 190.200,222.800 C 189.540,222.140 189.010,220.902 189.022,220.050 C 189.773,225.245 195.493,214.208 193.075,214.546 C 194.315,215.312 196.206,221.857 195.512,222.980 C 194.654,224.368 191.667,224.267 190.200,222.800" stroke="#7D7169" fill="#7D7169" stroke-width="1" />
  <path id="14" d="M 70.484,151.992 C 71.832,147.645 74.798,142.628 78.460,138.500 C 81.999,134.511 82.008,134.507 81.694,137.321 C 81.521,138.873 79.494,142.332 77.190,145.007 C 74.886,147.682 73,150.295 73,150.813 C 73,151.331 72.260,152.369 71.356,153.120 C 69.884,154.342 69.792,154.223 70.484,151.992" stroke="#A1958A" fill="#A1958A" stroke-width="1" />
  <path id="58" d="M 214.192,67.586 C 210.526,60.220 210.478,60 212.513,60 C 213.983,60 219,69.763 219,72.624 C 219,75.564 217.251,73.732 214.192,67.586" stroke="#B6AD9F" fill="#B6AD9F" stroke-width="1" />
  <path id="14" d="M 54.647,177.523 C 54.199,176.356 55.030,174.072 57.036,170.945 C 60.774,165.120 63,163.020 61,170.543 C 61,171.877 59.725,174.396 58.167,176.140 C 55.668,178.937 55.252,179.099 54.647,177.523" stroke="#A1958A" fill="#A1958A" stroke-width="1" />
  <path id="67" d="M 170.885,232.361 C 170.104,231.420 169.391,227.695 169.210,223.611 C 168.954,217.823 169.275,215.895 170.933,213.250 C 174.180,208.070 176.704,209.255 174.890,215.108 C 171.330,226.593 174.813,233.086 181,226.500 C 182.292,225.125 183.720,224 184.174,224 C 185.994,224 184.790,226.128 180.799,229.963 C 176.333,234.254 173.104,235.035 170.885,232.361" stroke="#7D7169" fill="#7D7169" stroke-width="1" />
  <path id="61" d="M 214.557,112.750 C 214.348,112.062 213.690,109.981 213.096,108.124 C 211.768,103.974 212.695,96.932 214.788,95.266 C 216.179,94.159 216.155,93.828 214.548,92.053 C 212.539,89.833 213.059,87.290 215.727,86.289 C 223.137,88.710 217.301,88.710 218.500,92 C 221.816,93.261 221.708,96.297 218.250,99.022 C 215.739,101.001 215.508,101.745 215.593,107.594 C 215.682,113.769 215.358,115.382 214.557,112.750" stroke="#5E5650" fill="#5E5650" stroke-width="1" />
  <path id="67" d="M 221.558,127 C 221.103,125.625 220.269,124.204 219.705,123.842 C 217.637,122.515 215.478,114.323 215.489,107.842 C 215.499,101.776 215.745,100.991 218.250,99.019 C 221.708,96.297 221.817,93.261 218.500,92 C 215.488,90.855 215.270,89.424 218,88.710 C 220.393,88.084 220.633,84.421 222.180,77.904 C 224.818,76.492 225.742,77.528 222.403,85.264 C 221.259,86.408 224.236,89.172 226.091,88.687 C 227.861,88.224 228.760,90.840 229.526,98.682 C 229.454,106.696 223.370,96.184 222.803,99.226 C 221.396,100.167 220.500,101.765 220.500,103.335 C 220.500,104.748 219.647,106.531 218.603,107.297 C 217.152,108.361 216.866,109.372 217.387,111.594 C 218.016,114.274 218.608,115.757 221.993,123.119 C 222.655,124.559 223.014,126.584 222.791,127.619 C 222.445,129.224 222.264,129.133 221.558,127" stroke="#7D7169" fill="#7D7169" stroke-width="1" />
  <path id="67" d="M 178.174,92.686 C 176.978,91.413 176,89.598 176,88.654 C 176,87.710 175.329,86.680 174.509,86.365 C 172.166,85.466 165.739,76.122 166.357,74.513 C 166.663,73.716 166.516,72.819 166.031,72.519 C 165.546,72.219 165.285,69.235 165.452,65.887 C 165.452,65.887 165.756,59.799 165.756,59.799 C 165.756,59.799 162.664,60.417 162.664,60.417 C 160.964,60.757 158.406,62.153 156.981,63.518 C 153.947,66.425 152.738,66.594 150.892,64.370 C 149.709,62.944 150.135,62.201 154.296,58.434 C 156.912,56.066 160.278,53.987 161.776,53.814 C 163.841,53.576 164.500,52.955 164.500,51.251 C 164.500,49.682 165.559,48.472 168,47.246 C 171.189,45.645 171.479,45.141 171.261,41.583 C 171.130,39.435 171.523,37.075 172.134,36.339 C 173.464,34.736 188,34.426 184,38.872 C 184,40.273 183.025,40.900 180.125,41.364 C 177.257,41.823 175.546,42.907 173.540,45.537 C 170.632,49.350 170.847,50.364 175.363,54.122 C 177.809,56.157 176.891,58.994 173.781,59.015 C 169.199,59.046 166.865,63.088 169.651,66.166 C 171.238,67.919 171.241,68.273 169.695,71.514 C 168.081,74.900 168.105,75.093 170.721,79.423 C 172.196,81.864 174.437,84.334 175.701,84.910 C 177.089,85.542 178,86.832 178,88.164 C 178,89.378 178.978,91.413 180.174,92.686 C 181.370,93.959 181.899,95 181.349,95 C 180.799,95 179.370,93.959 178.174,92.686" stroke="#7D7169" fill="#7D7169" stroke-width="1" />
  <path id="26" d="M 209,259.291 C 206.552,258.391 204,255.797 204,254.210 C 204,253.275 204.764,253.700 206.073,255.365 C 207.213,256.814 208.986,258 210.014,258 C 211.042,258 212.160,258.450 212.500,259 C 213.157,260.063 211.480,260.203 209,259.291" stroke="#52463D" fill="#52463D" stroke-width="1" />
  <path id="66" d="M 57.077,252.411 C 52.721,248.746 53.014,245.629 58.173,240.721 C 62.380,236.719 73.011,231.002 76.250,231.001 C 78.515,231 78.474,229.738 76.139,227.625 C 71.945,223.830 68.090,210.245 68.230,199.754 C 68.314,193.476 68.696,191.681 70.249,190.275 C 71.303,189.321 72.794,187.036 73.562,185.198 C 74.944,181.891 77.782,181.555 76.489,184.851 C 74.956,188.757 72,204.758 72,209.145 C 72,215.897 74.580,223.029 78.152,226.150 C 82.514,229.962 81.634,231.968 74.386,234.736 C 67.866,237.226 60.322,242.963 59.042,246.404 C 57.520,250.497 58.649,251 69.365,251 C 78.274,251 80.090,250.694 84.212,248.500 C 89.788,245.532 93.299,245.208 92.818,247.706 C 92.613,248.768 89.851,250.442 85.495,252.143 C 79.761,254.382 76.847,254.885 69.327,254.937 C 60.870,254.995 59.913,254.798 57.077,252.411" stroke="#8E8176" fill="#8E8176" stroke-width="1" />
  <path id="73" d="M 155.068,106.126 C 154.466,105.001 154.091,103.510 154.236,102.813 C 154.585,101.133 144.702,97.768 139.250,97.711 C 135.923,97.676 135,97.295 135,95.956 C 135,93.036 137.598,91.877 145.472,91.281 C 152.434,90.755 155.107,89.774 149.134,87.859 C 148.128,85.219 143.327,80.092 137.500,75.649 C 138.600,75.061 140.797,73.717 142.381,72.663 C 142.381,72.663 145.262,70.747 145.262,70.747 C 145.262,70.747 149.975,75.873 149.975,75.873 C 152.567,78.693 155.372,81 156.209,81 C 159.120,81 163,85.003 163,88.007 C 163,89.581 163.433,92.008 163.962,93.399 C 162.459,97.062 166.753,99.319 164.500,100.393 C 162.850,101.832 160.299,104.170 158.831,105.590 C 156.196,108.138 156.149,108.145 155.068,106.126" stroke="#C8B8A6" fill="#C8B8A6" stroke-width="1" />
  <path id="67" d="M 154.038,45.100 C 161.010,39.260 167.107,37.317 164.401,41.798 C 163.136,43.892 155.303,48 152.576,48 C 150.912,48 151.157,47.513 154.038,45.100" stroke="#7D7169" fill="#7D7169" stroke-width="1" />
  <path id="66" d="M 184.750,97.917 C 183.371,96.407 181.631,96 176.540,96 C 176.540,96 170.080,96 170.080,96 C 170.080,96 168.926,92.147 168.926,92.147 C 168.076,89.308 168.064,87.749 172.306,84.239 C 174.338,86.271 176,88.545 176,89.292 C 176,91.017 179.430,93.980 184.250,96.418 C 186.312,97.461 188,98.694 188,99.157 C 188,100.505 186.639,99.986 184.750,97.917" stroke="#8E8176" fill="#8E8176" stroke-width="1" />
  <path id="61" d="M 201.500,64.783 C 200.400,64.179 198.855,63.388 193.370,57.523 C 192.748,56.960 191.955,55.271 191.606,53.769 C 191.042,51.340 191.374,50.870 194.608,49.519 C 196.608,48.683 199.539,48 201.122,48 C 203.744,48 204,47.689 204,44.500 C 204,40.549 204.522,40.309 208.027,42.653 C 213.346,46.210 216,49.383 216,52.187 C 216,55.398 214.962,55.676 211.483,53.397 C 209.212,51.909 208.803,51.931 205.772,53.701 C 201.867,55.982 201.324,57.939 203.427,62.154 C 205.623,66.555 205.364,66.906 201.500,64.783" stroke="#5E5650" fill="#5E5650" stroke-width="1" />
  <path id="52" d="M 195.441,244.581 C 194.373,243.800 193.444,242.675 193.375,242.081 C 191.789,239.016 190.723,247.444 191.100,241.872 C 190.948,237.873 193.881,231.481 195.243,232.843 C 196.036,233.636 196.054,235.239 195.305,238.511 C 194.305,242.882 194.370,243.132 196.880,244.496 C 198.321,245.279 199.023,245.938 198.441,245.960 C 197.859,245.982 196.509,245.362 195.441,244.581" stroke="#5A4D43" fill="#5A4D43" stroke-width="1" />
  <path id="27" d="M 111.032,98.333 C 111.049,97.875 111.724,96.627 112.532,95.559 C 114.327,93.185 114.451,89.319 112.750,88.746 C 111.777,88.419 111.765,88.005 112.694,86.878 C 113.465,85.944 116.057,85.370 120.007,85.261 C 125.786,85.101 126.110,85.214 125.814,87.296 C 125.576,88.971 124.475,89.748 121.232,90.530 C 117.867,91.342 116.598,92.281 115.232,94.970 C 113.631,98.123 110.958,100.263 111.032,98.333" stroke="#32302F" fill="#32302F" stroke-width="1" />
</g></svg>